<?xml version="1.0" encoding="UTF-8" standalone="no"?>
<!-- Created with Inkscape (http://www.inkscape.org/) -->

<svg
   width="25.353346mm"
   height="35.203094mm"
   viewBox="0 0 25.353346 35.203094"
   version="1.1"
   id="svg1"
   xml:space="preserve"
   inkscape:version="1.3.2 (091e20e, 2023-11-25, custom)"
   sodipodi:docname="sqlany.svg"
   xmlns:inkscape="http://www.inkscape.org/namespaces/inkscape"
   xmlns:sodipodi="http://sodipodi.sourceforge.net/DTD/sodipodi-0.dtd"
   xmlns="http://www.w3.org/2000/svg"
   xmlns:svg="http://www.w3.org/2000/svg"><sodipodi:namedview
     id="namedview1"
     pagecolor="#ffffff"
     bordercolor="#666666"
     borderopacity="1.0"
     inkscape:showpageshadow="2"
     inkscape:pageopacity="0.0"
     inkscape:pagecheckerboard="0"
     inkscape:deskcolor="#d1d1d1"
     inkscape:document-units="mm"
     inkscape:zoom="1.4142136"
     inkscape:cx="288.49957"
     inkscape:cy="321.38003"
     inkscape:window-width="1920"
     inkscape:window-height="1017"
     inkscape:window-x="1912"
     inkscape:window-y="-8"
     inkscape:window-maximized="1"
     inkscape:current-layer="layer1" /><defs
     id="defs1" /><g
     inkscape:label="Layer 1"
     inkscape:groupmode="layer"
     id="layer1"
     transform="translate(-68.779024,-57.64963)"><path
       style="fill:none;fill-opacity:1;stroke:#868686;stroke-width:1.5875;stroke-linecap:round;stroke-linejoin:round;stroke-dasharray:none;stroke-opacity:1;paint-order:normal"
       d="m 74.205617,87.252271 2.210847,-3.749319 0.321277,-0.612641 0.321278,-0.61264 -2.532125,0.18587 -2.440364,0.179132 c 0,0 -0.0792,-0.01381 -0.112427,-0.03464 -0.02399,-0.01505 -0.04733,-0.03838 -0.05788,-0.0622 -0.02355,-0.05315 -0.05163,-0.106692 -0.06559,-0.163838 -0.01575,-0.06448 -0.01576,-0.12926 -0.01957,-0.198173 -0.0095,-0.171611 0.163703,-0.48894 0.163703,-0.48894 l 1.719791,-3.26824 1.719792,-3.26824 0.02631,-0.104663 -0.02631,-0.06373 -2.315104,0.348133 -2.315104,0.348134 -0.595313,0.0057 c 0,0 -0.196503,-0.02254 -0.291018,-0.05002 -0.06905,-0.02007 -0.170086,-0.05443 -0.199057,-0.08314 -0.04031,-0.03993 -0.07258,-0.134406 -0.09083,-0.207746 -0.01531,-0.0615 -0.04948,-0.186671 -0.04948,-0.186671 -0.01919,-0.247409 0.0085,-0.417393 0.03508,-0.539117 l 1.869168,-7.462488 1.869168,-7.462487 c 0,0 0.01324,-0.06927 0.03765,-0.0914 0.01984,-0.01799 0.07693,-0.02318 0.07693,-0.02318 l 8.417012,-0.571173 8.41703,-0.571173 c 0,0 0.35093,0.07115 0.44246,0.162683 0.0915,0.09153 0.10673,0.386507 0.10673,0.386507 l -2.1181,3.788487 -2.1181,3.788488 -0.32229,0.623495 -0.32228,0.623496 1.28116,-0.151509 1.28117,-0.151509 2.18062,-0.168601 2.18062,-0.168602 c 0.04726,-0.0105 0.305474,0.04373 0.36792,0.151786 0.114966,0.198931 0.102141,0.55524 -0.0398,0.703353 l -3.66761,3.849143 -3.66762,3.849142 -0.77884,0.941882 -0.77883,0.941881 1.34561,-0.18507 c 0,0 0.826919,-0.118352 1.240471,-0.176877 0.02919,-0.0041 0.0662,-0.01376 0.0997,-0.01298 0.02228,5.2e-4 0.05357,0.0035 0.06582,0.01172 0.05272,0.0352 0.156974,0.142258 0.209279,0.22258 0.109718,0.168486 0.119535,0.346935 0.09526,0.378184 -0.07144,0.09196 -0.132168,0.175781 -0.211288,0.240958 -2.510511,2.068099 -4.653423,4.554677 -6.982368,6.827884 l -7.216194,7.049667 c -0.0034,0.0034 -0.190604,0.05759 -0.489602,0.08455 -0.135635,0.01223 -0.287355,-0.0076 -0.396338,-0.0935 -0.163594,-0.128989 -0.272876,-0.704924 -0.157582,-0.885948 0.787525,-1.251215 1.522813,-2.546518 2.275158,-3.8224 z"
       id="path2"
       sodipodi:nodetypes="ccccccasasccccccccsssccccacccccccccccccsccccccsasssscssscc"
       inkscape:export-filename="..\Documents\development\sqlanydb-tools\resources\sqlanydb-tools.svg"
       inkscape:export-xdpi="25.650316"
       inkscape:export-ydpi="25.650316" /></g></svg>
